<svg width="634" height="624" viewBox="0 0 634 624" fill="none" xmlns="http://www.w3.org/2000/svg">
<path d="M107.864 141.893C114.12 145.805 115.993 154.031 112.41 160.482C91.3529 198.395 79.3525 242.084 79.3525 288.59C79.3526 433.937 196.566 551.764 341.155 551.764C388.685 551.764 433.257 539.031 471.679 516.773C478.14 513.031 486.503 514.815 490.513 521.115C494.513 527.398 492.648 535.766 486.164 539.43C433.001 569.47 371.53 582.137 310.51 575.425C244.996 568.219 183.896 539.102 137.242 492.855C90.587 446.609 61.1505 385.981 53.765 320.925C46.8792 260.272 59.5426 199.131 89.7458 146.233C93.391 139.849 101.631 137.996 107.864 141.893Z" fill="#B02727"/>
<path d="M577.113 435.286C570.857 431.375 568.984 423.148 572.567 416.697C593.624 378.784 605.624 335.096 605.624 288.59C605.624 143.242 488.411 25.415 343.822 25.415C296.292 25.415 251.72 38.1486 213.298 60.406C206.837 64.1489 198.474 62.3641 194.464 56.0648C190.464 49.7814 192.329 41.4131 198.813 37.749C251.976 7.70952 313.447 -4.95794 374.467 1.75408C439.981 8.9604 501.081 38.0774 547.735 84.3241C594.39 130.571 623.826 191.199 631.212 256.254C638.098 316.907 625.434 378.049 595.231 430.946C591.586 437.331 583.346 439.184 577.113 435.286Z" fill="#B02727"/>
<path fill-rule="evenodd" clip-rule="evenodd" d="M344.164 53.5045C359.306 53.5045 371.581 65.7813 371.581 80.9255C371.581 96.0697 359.306 108.347 344.164 108.347C334.007 108.346 325.14 102.822 320.403 94.6145C319.65 94.8425 318.87 95.0106 318.069 95.1096C226.313 106.439 154.342 181.651 148.015 274.879H185.581C186.693 261.869 189.422 249.014 193.733 236.619C200.849 216.16 212.116 197.392 226.828 181.494C241.541 165.597 259.38 152.913 279.227 144.239C295.204 137.255 312.206 132.991 329.528 131.594C329.727 131.578 329.924 131.568 330.121 131.562V131.545L355.866 132.089V214.687H340.263C305.84 216.241 277.552 241.352 271.13 274.283C269.691 281.663 263.684 287.763 256.166 287.716C248.631 287.669 242.463 281.491 243.559 274.035C244.923 264.764 247.618 255.707 251.58 247.143C257.462 234.43 266.007 223.089 276.65 213.869C287.294 204.648 299.796 197.757 313.332 193.647C318.829 191.979 324.447 190.785 330.121 190.07V156.904C329.957 156.927 329.792 156.947 329.626 156.964C263.049 163.743 211.099 219.978 211.089 288.35V300.294H137.137C136.921 300.319 136.702 300.339 136.481 300.352L135.216 300.426C134.285 300.481 133.371 300.433 132.485 300.294H122.15V288.255L122.151 288.25C122.151 263.73 126.25 239.351 134.306 216.129C143.776 188.83 158.53 163.664 177.725 142.068C196.92 120.471 220.181 102.867 246.178 90.2614C268.362 79.5046 292.168 72.5666 316.596 69.7087C317.465 69.607 318.319 69.6016 319.149 69.6839C323.441 60.1455 333.027 53.5046 344.164 53.5045ZM344.164 69.5559C337.886 69.556 332.796 74.6463 332.796 80.9255C332.796 87.2048 337.886 92.2951 344.164 92.2952C350.442 92.2952 355.532 87.2048 355.532 80.9255C355.532 74.6462 350.442 69.5559 344.164 69.5559Z" fill="#B02727"/>
<path fill-rule="evenodd" clip-rule="evenodd" d="M341.489 523.16C326.347 523.16 314.072 510.883 314.072 495.739C314.072 480.595 326.347 468.318 341.489 468.318C351.646 468.318 360.513 473.842 365.25 482.05C366.003 481.822 366.783 481.654 367.584 481.555C459.34 470.225 531.311 395.014 537.639 301.786H500.072C498.96 314.796 496.231 327.65 491.92 340.045C484.805 360.505 473.537 379.273 458.825 395.17C444.113 411.068 426.273 423.751 406.427 432.426C390.449 439.41 373.448 443.674 356.125 445.071C355.927 445.087 355.729 445.097 355.532 445.103V445.12L329.787 444.576V361.978H345.39C379.813 360.423 408.101 335.313 414.523 302.381C415.962 295.002 421.97 288.902 429.487 288.949C437.022 288.995 443.191 295.173 442.094 302.63C440.73 311.901 438.036 320.958 434.073 329.522C428.191 342.235 419.646 353.575 409.003 362.796C398.359 372.016 385.858 378.908 372.321 383.017C366.824 384.686 361.207 385.88 355.532 386.595V419.761C355.697 419.738 355.862 419.717 356.027 419.701C422.604 412.922 474.555 356.687 474.564 288.315V276.371H548.516C548.733 276.346 548.951 276.326 549.172 276.313L550.437 276.239C551.368 276.185 552.282 276.232 553.168 276.371H563.503V288.41L563.502 288.415C563.502 312.934 559.404 337.313 551.348 360.535C541.878 387.834 527.123 413.001 507.928 434.597C488.733 456.193 465.473 473.797 439.476 486.403C417.292 497.16 393.485 504.098 369.057 506.956C368.189 507.058 367.334 507.063 366.504 506.981C362.212 516.519 352.626 523.16 341.489 523.16ZM341.489 507.109C347.768 507.109 352.857 502.018 352.857 495.739C352.857 489.46 347.768 484.37 341.489 484.369C335.211 484.369 330.121 489.46 330.121 495.739C330.121 502.018 335.211 507.109 341.489 507.109Z" fill="#B02727"/>
<path fill-rule="evenodd" clip-rule="evenodd" d="M474.508 109.762C500.721 109.762 521.971 131.162 521.971 157.561C521.971 183.96 500.721 205.36 474.508 205.36C471.977 205.36 469.491 205.159 467.067 204.774C431.504 213.88 402.079 233.256 389.9 282.529C390.15 284.514 390.279 286.537 390.279 288.59C390.279 314.988 369.029 336.388 342.816 336.388C341.031 336.388 339.27 336.289 337.536 336.095C300.881 345.146 270.524 364.717 258.452 415.991C258.541 417.189 258.587 418.398 258.587 419.618C258.587 446.017 237.337 467.417 211.124 467.417C184.911 467.417 163.661 446.017 163.661 419.618C163.661 397.138 179.072 378.281 199.835 373.18C199.81 373.172 199.785 373.164 199.76 373.157C199.819 373.157 199.878 373.155 199.937 373.155C203.524 372.282 207.27 371.82 211.124 371.82C212.693 371.82 214.244 371.897 215.773 372.047C260.231 365.749 290.687 333.229 295.393 290.544C295.367 289.896 295.354 289.244 295.354 288.59C295.354 285.865 295.58 283.193 296.015 280.593C296.017 280.473 296.02 280.353 296.022 280.233C296.034 280.271 296.045 280.309 296.057 280.346C299.341 261.321 313.794 246.157 332.365 241.954C331.844 241.789 331.317 241.623 330.783 241.459C332.347 241.459 333.896 241.427 335.431 241.367C337.838 240.988 340.304 240.791 342.816 240.791C342.958 240.791 343.1 240.792 343.242 240.794C393.2 235.376 426.978 199.11 427.597 150.254C427.41 149.689 427.777 150.835 427.597 150.254C431.089 127.324 450.762 109.762 474.508 109.762ZM211.124 399.897C200.048 399.897 191.069 408.876 191.069 419.953C191.069 431.029 200.048 440.008 211.124 440.008C222.2 440.008 231.179 431.029 231.179 419.953C231.179 408.876 222.2 399.897 211.124 399.897ZM342.816 268.869C331.74 268.869 322.762 277.848 322.762 288.924C322.762 300 331.74 308.979 342.816 308.979C353.892 308.979 362.871 300 362.871 288.924C362.871 277.848 353.892 268.869 342.816 268.869ZM474.508 137.84C463.432 137.84 454.454 146.819 454.454 157.895C454.454 168.972 463.432 177.951 474.508 177.951C485.584 177.951 494.563 168.972 494.563 157.895C494.563 146.819 485.584 137.84 474.508 137.84Z" fill="#231F20"/>
</svg>
